<svg xmlns="http://www.w3.org/2000/svg" version="1.1" xmlns:xlink="http://www.w3.org/1999/xlink" xmlns:svgjs="http://svgjs.dev/svgjs" viewBox="0 0 800 800"><g transform="matrix(1,0,0,1,0,0)"><path d="M680.1510035722558 628.487066304502C682.532762561744 627.1122047805118 685.467237438256 627.1122047805118 687.8489964277442 628.4874512041448L730.1510067672236 652.9104882371098C732.5327657567117 654.2853497611 734.0000031949678 656.8268421023395 734.0000031949678 659.5769500499628V708.4230241158928C734.0000031949678 711.1731320635159 732.5327657567117 713.7146244047555 730.1510067672236 715.0898708283884L687.8489964277442 739.5129078613534C685.467237438256 740.8877693853436 682.532762561744 740.8877693853436 680.1510035722558 739.5125229617106L637.8489932327764 715.0894859287456C635.4672342432883 713.7146244047555 633.9999968050322 711.1731320635159 633.9999968050322 708.4230241158928V659.5769500499628C633.9999968050322 656.8268421023395 635.4672342432883 654.2853497611 637.8489932327764 652.910103337467L680.1510035722558 628.487066304502Z " stroke-width="4" stroke="#ff3895" fill="none" opacity="0.1" transform="rotate(100, 400, 400)"></path><path d="M660.7044656289603 602.1520278062352C663.4037924837135 600.5938514123795 666.7295306770939 600.5938514123795 669.4288575318471 602.1524640258303L717.3711359165904 629.831905996524C720.0704627713435 631.3900823903796 721.7333318680338 634.2704403771177 721.7333318680338 637.387229384424V692.7461133258113C721.7333318680338 695.8629023331175 720.0704627713435 698.7432603198556 717.3711359165904 700.3018729333064L669.4288575318471 727.9813149040001C666.7295306770939 729.5394912978556 663.4037924837135 729.5394912978556 660.7044656289603 727.9808786844048L612.762187244217 700.3014367137113C610.0628603894638 698.7432603198556 608.3999912927736 695.8629023331175 608.3999912927736 692.7461133258113V637.387229384424C608.3999912927736 634.2704403771177 610.0628603894638 631.3900823903796 612.762187244217 629.8314697769288L660.7044656289603 602.1520278062352Z " stroke-width="4.8" stroke="#f8439e" fill="none" opacity="0.16" transform="rotate(93.33333333333333, 400, 400)"></path><path d="M641.2579429444538 575.8169587903901C644.274837664472 574.0754675266692 647.9918391747208 574.0754675266692 651.008733894739 575.8174463299376L704.5912803247462 606.7532932383599C707.6081750447645 608.4947845020808 709.4666757998889 611.7140081343175 709.4666757998889 615.1974782013069V677.0691720181517C709.4666757998889 680.5526420851411 707.6081750447645 683.7718657173778 704.5912803247462 685.5138445206461L651.008733894739 716.4496914290685C647.9918391747208 718.1911826927894 644.274837664472 718.1911826927894 641.2579429444538 716.449203889521L587.6753965144464 685.5133569810987C584.6585017944283 683.7718657173778 582.8000010393039 680.5526420851411 582.8000010393039 677.0691720181517V615.1974782013069C582.8000010393039 611.7140081343175 584.6585017944283 608.4947845020808 587.6753965144464 606.7528056988124L641.2579429444538 575.8169587903901Z " stroke-width="5.6" stroke="#f14ca7" fill="none" opacity="0.22000000000000003" transform="rotate(86.66666666666667, 400, 400)"></path><path d="M621.8114050011582 549.4819126627286C625.1458675864416 547.5571065291424 629.2541324135585 547.5571065291424 632.5885949988419 549.4824515222285L691.811409474113 583.6747033683796C695.1458720593964 585.5995095019659 697.2000044729549 589.1575987797012 697.2000044729549 593.0077499063736V661.3922535986757C697.2000044729549 665.2424047253481 695.1458720593964 668.8004940030834 691.811409474113 670.7258389961696L632.5885949988419 704.9180908423206C629.2541324135585 706.8428969759069 625.1458675864416 706.8428969759069 621.8114050011582 704.9175519828207L562.588590525887 670.7253001366697C559.2541279406037 668.8004940030834 557.1999955270452 665.2424047253481 557.1999955270452 661.3922535986757V593.0077499063736C557.1999955270452 589.1575987797012 559.2541279406037 585.5995095019659 562.588590525887 583.6741645088797L621.8114050011582 549.4819126627286Z " stroke-width="6.4" stroke="#e954af" fill="none" opacity="0.28" transform="rotate(80, 400, 400)"></path><path d="M602.3648670578626 523.1468589056726C606.0168975084109 521.038737902221 610.5164256523963 521.038737902221 614.1684561029447 523.1474490851249L679.0315386234797 560.5961058690045C682.6835690740281 562.7042268724563 684.9333331460208 566.6011817956901 684.9333331460208 570.8180139820456V645.715327549805C684.9333331460208 649.9321597361607 682.6835690740281 653.8291146593945 679.0315386234797 655.9378258422984L614.1684561029447 693.3864826261781C610.5164256523963 695.4946036296298 606.0168975084109 695.4946036296298 602.3648670578626 693.3858924467258L537.5017845373275 655.9372356628462C533.8497540867791 653.8291146593945 531.5999900147865 649.9321597361607 531.5999900147865 645.715327549805V570.8180139820456C531.5999900147865 566.6011817956901 533.8497540867791 562.7042268724563 537.5017845373275 560.5955156895523L602.3648670578626 523.1468589056726Z " stroke-width="7.2" stroke="#e15cb7" fill="none" opacity="0.34" transform="rotate(73.33333333333333, 400, 400)"></path><path d="M582.9183291145671 496.8117975192222C586.8879274303806 494.52036164590515 591.7787188912341 494.52036164590515 595.7483172070476 496.81243901862683L666.2516677728466 537.5175007402352C670.2212660886601 539.8089366135522 672.6666618190869 544.0447571822847 672.6666618190869 548.6282704283233V630.0383938715399C672.6666618190869 634.6219071175788 670.2212660886601 638.8577276863111 666.2516677728466 641.1498050590328L595.7483172070476 681.8548667806411C591.7787188912341 684.1463026539582 586.8879274303806 684.1463026539582 582.9183291145671 681.8542252812365L512.414978548768 641.1491635596282C508.44538023295456 638.8577276863111 505.99998450252775 634.6219071175788 505.99998450252775 630.0383938715399V548.6282704283233C505.99998450252775 544.0447571822847 508.44538023295456 539.8089366135522 512.414978548768 537.5168592408305L582.9183291145671 496.8117975192222Z " stroke-width="8" stroke="#d962bf" fill="none" opacity="0.4" transform="rotate(66.66666666666666, 400, 400)"></path><path d="M563.4718064300605 470.47674376216617C567.758972611139 468.00199301898374 573.0410273888609 468.00199301898374 577.3281935699395 470.4774365815231L653.4718121810024 514.4389032408601C657.7589783620809 516.9136539840425 660.4000057509419 521.4883401982736 660.4000057509419 526.4385345039954V614.3614678226694C660.4000057509419 619.3116621283912 657.7589783620809 623.8863483426222 653.4718121810024 626.3617919051616L577.3281935699395 670.3232585644986C573.0410273888609 672.798009307681 567.758972611139 672.798009307681 563.4718064300605 670.3225657451417L487.32818781899755 626.3610990858047C483.041021637919 623.8863483426222 480.39999424905807 619.3116621283912 480.39999424905807 614.3614678226694V526.4385345039954C480.39999424905807 521.4883401982736 483.041021637919 516.9136539840425 487.32818781899755 514.4382104215032L563.4718064300605 470.47674376216617Z " stroke-width="8.8" stroke="#d169c6" fill="none" opacity="0.4600000000000001" transform="rotate(60, 400, 400)"></path><path d="M544.025268486765 444.1416900051102C548.6300025331086 441.48362439206244 554.3033206276988 441.48362439206244 558.9080546740424 444.14243414441955L640.6919413303692 491.36030574148526C645.2966753767129 494.018371354533 648.133334424008 498.9319232142626 648.133334424008 504.24879857966755V598.6845417737989C648.133334424008 604.0014171392038 645.2966753767129 608.9149689989334 640.6919413303692 611.5737787512905L558.9080546740424 658.7916503483561C554.3033206276988 661.449715961404 548.6300025331086 661.449715961404 544.025268486765 658.7909062090469L462.2413818304381 611.5730346119811C457.63664778409446 608.9149689989334 454.7999887367994 604.0014171392038 454.7999887367994 598.6845417737989V504.24879857966755C454.7999887367994 498.9319232142626 457.63664778409446 494.018371354533 462.2413818304381 491.3595616021759L544.025268486765 444.1416900051102Z " stroke-width="9.600000000000001" stroke="#c86fcd" fill="none" opacity="0.52" transform="rotate(53.33333333333333, 400, 400)"></path><path d="M524.5787305434693 417.80663624805413C529.5010324550781 414.965255765141 535.5656138665365 414.965255765141 540.4879157781452 417.8074317073159L627.912070479736 468.28170824211026C632.8343723913447 471.12308872502336 635.8666630970739 476.3755062302516 635.8666630970739 482.0590626553396V583.0076157249283C635.8666630970739 588.6911721500162 632.8343723913447 593.9435896552445 627.912070479736 596.7857655974193L540.4879157781452 647.2600421322137C535.5656138665365 650.1014226151268 529.5010324550781 650.1014226151268 524.5787305434693 647.259246672952L437.1545758418785 596.7849701381576C432.23227393026986 593.9435896552445 429.19998322454063 588.6911721500162 429.19998322454063 583.0076157249283V482.0590626553396C429.19998322454063 476.3755062302516 432.23227393026986 471.12308872502336 437.1545758418785 468.28091278284853L524.5787305434693 417.80663624805413Z " stroke-width="10.4" stroke="#bf75d4" fill="none" opacity="0.5800000000000001" transform="rotate(46.666666666666664, 400, 400)"></path><path d="M505.1322078589629 391.47158249099823C510.37207763583666 388.4468871382197 516.8279223641634 388.4468871382197 522.0677921410372 391.47242927021233L615.1322148878919 445.20311074273536C620.3720846647657 448.2278060955138 623.600007028929 453.81908924624065 623.600007028929 459.8693267310117V567.3306896760578C623.600007028929 573.3809271608288 620.3720846647657 578.9722103115557 615.1322148878919 581.9977524435483L522.0677921410372 635.7284339160713C516.8279223641634 638.7531292688498 510.37207763583666 638.7531292688498 505.1322078589629 635.7275871368572L412.06778511210814 581.9969056643341C406.82791533523437 578.9722103115557 403.599992971071 573.3809271608288 403.599992971071 567.3306896760578V459.8693267310117C403.599992971071 453.81908924624065 406.82791533523437 448.2278060955138 412.06778511210814 445.20226396352126L505.1322078589629 391.47158249099823Z " stroke-width="11.2" stroke="#b57adb" fill="none" opacity="0.64" transform="rotate(40, 400, 400)"></path><path d="M485.68566991566723 365.13653636333675C491.24310755780607 361.9285261406929 498.0902156030011 361.9285261406929 503.64765324513996 365.13743446250317L602.3523440372586 422.1245208727549C607.9097816793975 425.33253109539874 611.333335701995 431.26267989162415 611.333335701995 437.6795984360783V551.6537712565816C611.333335701995 558.0706898010359 607.9097816793975 564.0008385972613 602.3523440372586 567.2097469190717L503.64765324513996 624.1968333293233C498.0902156030011 627.4048435519671 491.24310755780607 627.4048435519671 485.68566991566723 624.1959352301568L386.9809791235486 567.2088488199051C381.42354148140976 564.0008385972613 377.9999874588122 558.0706898010359 377.9999874588122 551.6537712565816V437.6795984360783C377.9999874588122 431.26267989162415 381.42354148140976 425.33253109539874 386.9809791235486 422.1236227735884L485.68566991566723 365.13653636333675Z " stroke-width="12" stroke="#ab7fe1" fill="none" opacity="0.7000000000000001" transform="rotate(33.33333333333333, 400, 400)"></path><path d="M466.23913197237175 338.8014673474917C472.11413747977565 335.41014225498253 479.352508841839 335.41014225498253 485.22751434924294 338.8024167666106L589.5724731866255 399.04590811459093C595.4474786940294 402.4372332071001 599.066664375061 408.70624764882416 599.066664375061 415.48984725296145V535.9768299489222C599.066664375061 542.7604295530595 595.4474786940294 549.0294439947835 589.5724731866255 552.4217185064115L485.22751434924294 612.6652098543918C479.352508841839 616.056534946901 472.11413747977565 616.056534946901 466.23913197237175 612.664260435273L361.89417313498916 552.4207690872927C356.0191676275852 549.0294439947835 352.39998194655357 542.7604295530595 352.39998194655357 535.9768299489222V415.48984725296145C352.39998194655357 408.70624764882416 356.0191676275852 402.4372332071001 361.89417313498916 399.04495869547213L466.23913197237175 338.8014673474917Z " stroke-width="12.8" stroke="#a085e8" fill="none" opacity="0.76" transform="rotate(26.666666666666657, 400, 400)"></path><path d="M446.7926092878652 312.4664288492248C452.98518266053424 308.89178888685024 460.6148173394658 308.89178888685024 466.8073907121348 312.467429588296L576.7926175947814 375.96732587400504C582.9851909674503 379.5419658363796 586.800008306916 386.14984592360224 586.800008306916 393.3001265874226V520.2999191588406C586.800008306916 527.450199822661 582.9851909674503 534.0580799098836 576.7926175947814 537.6337206113294L466.8073907121348 601.1336168970383C460.6148173394658 604.7082568594128 452.98518266053424 604.7082568594128 446.7926092878652 601.132616157967L336.80738240521873 537.6327198722581C330.6148090325497 534.0580799098836 326.7999916930839 527.450199822661 326.7999916930839 520.2999191588406V393.3001265874226C326.7999916930839 386.14984592360224 330.6148090325497 379.5419658363796 336.80738240521873 375.96632513493387L446.7926092878652 312.4664288492248Z " stroke-width="13.600000000000001" stroke="#9589ee" fill="none" opacity="0.8200000000000001" transform="rotate(20, 400, 400)"></path><path d="M427.3460866033587 286.1313445745907C433.8562278412928 282.3733897423508 441.8771258370927 282.3733897423508 448.3872670750268 286.1323966336143L564.0127620029372 352.88869785705197C570.5229032408712 356.6466526892919 574.5333522387713 363.59339842201314 574.5333522387713 371.1103601455166V504.622962592392C574.5333522387713 512.1399243158955 570.5229032408712 519.0866700486167 564.0127620029372 522.8456769398801L448.3872670750268 589.6019781633179C441.8771258370927 593.3599329955579 433.8562278412928 593.3599329955579 427.3460866033587 589.6009261042943L311.72059167544825 522.8446248808566C305.21045043751417 519.0866700486167 301.20000143961425 512.1399243158955 301.20000143961425 504.622962592392V371.1103601455166C301.20000143961425 363.59339842201314 305.21045043751417 356.6466526892919 311.72059167544825 352.8876457980284L427.3460866033587 286.1313445745907Z " stroke-width="14.4" stroke="#888ef4" fill="none" opacity="0.88" transform="rotate(13.333333333333329, 400, 400)"></path><path d="M407.899533401274 259.7963060763238C414.7272425044732 255.85503637421849 423.1394038171414 255.85503637421849 429.9671129203406 259.7974094552997L551.232875893515 329.8101156164661C558.0605849967142 333.7513853185714 562.2666656530482 341.03699669679116 562.2666656530482 348.92063947997775V488.9460518023105C562.2666656530482 496.829694585497 558.0605849967142 504.1153059637168 551.232875893515 508.057679044798L429.9671129203406 578.0703852059644C423.1394038171414 582.0116549080697 414.7272425044732 582.0116549080697 407.899533401274 578.0692818269886L286.6337704280997 508.05657566582215C279.80606132490055 504.1153059637168 275.59998066856645 496.829694585497 275.59998066856645 488.9460518023105V348.92063947997775C275.59998066856645 341.03699669679116 279.80606132490055 333.7513853185714 286.6337704280997 329.80901223749015L407.899533401274 259.7963060763238Z " stroke-width="15.200000000000001" stroke="#7b93f9" fill="none" opacity="0.9400000000000001" transform="rotate(6.666666666666657, 400, 400)"></path><path d="M388.4530107167675 233.46125231926777C395.59828768523175 229.33666774729716 404.40171231476825 229.33666774729716 411.5469892832325 233.46240701819613L538.4530203016707 306.7315181170911C545.5982972701349 310.8561026890618 550.0000095849032 318.48057971278024 550.0000095849032 326.7309035556499V473.2691257534399C550.0000095849032 481.5194495963096 545.5982972701349 489.14392662002797 538.4530203016707 493.26966589092694L411.5469892832325 566.538776989822C404.40171231476825 570.6633615617925 395.59828768523175 570.6633615617925 388.4530107167675 566.5376222908938L261.54697969832927 493.26851119199864C254.401702729865 489.14392662002797 249.99999041509682 481.5194495963096 249.99999041509682 473.2691257534399V326.7309035556499C249.99999041509682 318.48057971278024 254.401702729865 310.8561026890618 261.54697969832927 306.7303634181629L388.4530107167675 233.46125231926777Z " stroke-width="16" stroke="#6b97ff" fill="none" opacity="1" transform="rotate(0, 400, 400)"></path></g></svg>